<svg class="logo" width="313" height="60" viewBox="0 0 313 60" xmlns="http://www.w3.org/2000/svg">
  <g class="logo__icon" fill="#E76057">
    <path d="M58.1645 0H1.83548C1.34978 0.00355839 0.884985 0.198082 0.541534 0.541534C0.198082 0.884985 0.00355839 1.34978 0 1.83548L0 8.63357H60V1.83548C60 1.59445 59.9525 1.35577 59.8602 1.13307C59.768 0.910384 59.6328 0.708041 59.4623 0.537601C59.2919 0.36716 59.0896 0.23196 58.8669 0.139718C58.6442 0.0474762 58.4055 0 58.1645 0Z"></path>
    <path d="M0 27.0972H13.8137C13.9075 27.0972 13.9974 27.1344 14.0637 27.2007C14.13 27.267 14.1672 27.3569 14.1672 27.4507V32.5493C14.1672 32.643 14.13 32.7329 14.0637 32.7992C13.9974 32.8655 13.9075 32.9028 13.8137 32.9028H0V44.0652H60V32.9028H46.227C46.1333 32.9028 46.0433 32.8655 45.9771 32.7992C45.9108 32.7329 45.8735 32.643 45.8735 32.5493V27.4507C45.8735 27.3569 45.9108 27.267 45.9771 27.2007C46.0433 27.1344 46.1333 27.0972 46.227 27.0972H60V15.9347H0V27.0972ZM20.5302 27.4507C20.5302 27.3569 20.5675 27.267 20.6338 27.2007C20.7001 27.1344 20.79 27.0972 20.8837 27.0972H39.1162C39.21 27.0972 39.2999 27.1344 39.3662 27.2007C39.4325 27.267 39.4697 27.3569 39.4697 27.4507V32.5493C39.4697 32.643 39.4325 32.7329 39.3662 32.7992C39.2999 32.8655 39.21 32.9028 39.1162 32.9028H20.8837C20.79 32.9028 20.7001 32.8655 20.6338 32.7992C20.5675 32.7329 20.5302 32.643 20.5302 32.5493V27.4507Z"></path>
    <path d="M0 58.1645C0 58.4055 0.0474762 58.6442 0.139718 58.8669C0.23196 59.0896 0.36716 59.2919 0.537601 59.4623C0.708041 59.6328 0.910384 59.768 1.13307 59.8602C1.35577 59.9525 1.59445 59.9999 1.83548 59.9999H58.1645C58.406 60.0018 58.6455 59.9555 58.869 59.8639C59.0925 59.7723 59.2956 59.6372 59.4664 59.4664C59.6372 59.2956 59.7723 59.0925 59.8639 58.869C59.9555 58.6455 60.0018 58.406 59.9999 58.1645V51.3664H0V58.1645Z"></path>
  </g>
  <g class="logo__wordmark" fill="#000">
    <path d="M85.3459 38.7355L84.4622 43.7933H93.1637L94.6865 34.9966H86.2569C84.5062 35.0137 82.758 34.8634 81.0359 34.5479C79.6871 34.3355 78.4144 33.7834 77.3378 32.9435C76.3476 32.1034 75.6599 30.9621 75.3799 29.6941C75.0453 27.9201 75.0824 26.0961 75.4887 24.3372L76.9435 15.9075C77.2016 14.0729 77.8208 12.3076 78.7654 10.7138C79.5475 9.44469 80.6132 8.37428 81.8789 7.58667C83.165 6.81949 84.5867 6.3071 86.0665 6.07749C87.7071 5.80976 89.3669 5.67788 91.0291 5.6832H100.03C101.674 5.67161 103.317 5.80354 104.938 6.07749C106.252 6.27305 107.498 6.78645 108.568 7.57307C109.564 8.35127 110.276 9.43596 110.594 10.6594C110.979 12.3646 110.979 14.1343 110.594 15.8396L110.037 19.0347L96.7939 20.6662L97.5417 16.2202H89.7647L88.4051 24.5003H96.9027C98.6283 24.4893 100.352 24.6212 102.056 24.8946C103.428 25.089 104.736 25.6011 105.876 26.3902C106.903 27.1493 107.645 28.2314 107.984 29.4629C108.367 31.1729 108.367 32.9467 107.984 34.6567L106.42 43.6845C106.131 45.5606 105.509 47.37 104.585 49.0278C103.827 50.3434 102.77 51.4614 101.498 52.2909C100.218 53.0989 98.7899 53.6442 97.297 53.8953C95.5628 54.1851 93.807 54.3261 92.0488 54.3167H81.8245C80.0932 54.331 78.3641 54.1899 76.658 53.8953C75.3318 53.6898 74.0838 53.1362 73.0414 52.2909C72.0912 51.4428 71.4462 50.3058 71.2059 49.055C70.9024 47.2883 70.9347 45.4801 71.3011 43.7253L71.8449 40.4894L85.3459 38.7355Z"></path>
    <path d="M117.773 53.7729L123.959 18.2869H113.232L115.325 6.22705H150.58L148.473 18.2869H137.746L131.559 53.7729H117.773Z"></path>
    <path d="M146.23 53.7729L154.51 6.18626H177.351C179.094 6.16927 180.834 6.3287 182.545 6.66213C183.901 6.91249 185.176 7.49134 186.257 8.34805C187.254 9.20679 187.946 10.3662 188.228 11.6519C188.6 13.3907 188.6 15.1884 188.228 16.9272L186.637 26.1591C186.422 27.3892 186.061 28.5895 185.563 29.7348C185.146 30.7233 184.577 31.6407 183.877 32.4541C183.201 33.2021 182.401 33.8276 181.512 34.3032C180.59 34.7944 179.625 35.1995 178.629 35.5132H178.221L185.115 53.8137H169.996L164.734 37.4983H162.831L160.016 53.8137L146.23 53.7729ZM164.666 27.0836H170.472C170.822 27.0875 171.17 27.037 171.505 26.934C171.801 26.839 172.077 26.6916 172.321 26.499C172.567 26.3204 172.764 26.0817 172.892 25.8055C173.032 25.5078 173.145 25.1985 173.232 24.881L174.102 19.7145C174.157 19.4133 174.157 19.1047 174.102 18.8035C174.057 18.5541 173.949 18.3202 173.789 18.1237C173.611 17.9273 173.386 17.7779 173.136 17.6886C172.821 17.5842 172.49 17.5337 172.158 17.5391H166.338L164.666 27.0836Z"></path>
    <path d="M185.414 53.7729L208.622 6.22705H221.552L228.242 53.8137H214.374L213.694 48.1441H201.947L199.228 53.8137L185.414 53.7729ZM206.338 38.4228H212.824L211.695 26.7029L206.338 38.4228Z"></path>
    <path d="M239.703 6.22705H257.093C259.098 6.2063 261.099 6.43465 263.048 6.90686C264.708 7.31521 266.285 8.00501 267.712 8.94629C269.026 9.85097 270.13 11.029 270.947 12.3997C271.836 13.9159 272.478 15.5634 272.851 17.2807C273.305 19.3605 273.497 21.4891 273.422 23.6166C273.353 26.2487 273.08 28.8716 272.606 31.4616C272.172 34.1637 271.526 36.8277 270.675 39.4289C270.001 41.4947 269.089 43.475 267.956 45.3297C267.03 46.8572 265.875 48.2329 264.53 49.4085C263.315 50.4796 261.939 51.3515 260.451 51.9918C258.882 52.6595 257.232 53.1166 255.543 53.3514C253.674 53.6194 251.788 53.7511 249.901 53.7457H231.423L239.703 6.22705ZM251.015 42.3249C251.66 42.3317 252.304 42.2632 252.932 42.121C253.524 41.986 254.08 41.7265 254.564 41.3596C255.103 40.9517 255.564 40.4496 255.924 39.8776C256.409 39.1458 256.819 38.3669 257.147 37.5527C257.6 36.4645 257.964 35.3414 258.235 34.1944C258.561 32.8348 258.874 31.3936 259.173 29.6941C259.472 27.9945 259.663 26.5669 259.771 25.3161C259.865 24.2492 259.888 23.1773 259.839 22.1074C259.807 21.3514 259.647 20.6065 259.363 19.9048C259.146 19.3894 258.822 18.926 258.412 18.5452C258.028 18.2005 257.558 17.9656 257.052 17.8654C256.444 17.7381 255.824 17.6788 255.203 17.6886H251.464L247.154 42.3385L251.015 42.3249Z"></path>
    <path d="M269.452 53.7729L292.715 6.18626H305.645L312.334 53.7729H298.357L297.678 48.1033H285.985L283.266 53.7729H269.452ZM290.376 38.4228H296.862L295.733 26.7029L290.376 38.4228Z"></path>
  </g>
</svg>
