<svg fill="none" height="340" viewBox="0 0 340 340" width="340" xmlns="http://www.w3.org/2000/svg"><path clip-rule="evenodd" d="m329.599 0h-319.1979c-2.75233.0201642-5.38618 1.12246-7.33241 3.06869s-3.0485258 4.58008-3.06869 7.33241v38.5225h340v-38.5225c0-1.36591-.269-2.71843-.792-3.98034-.523-1.26192-1.289-2.40853-2.255-3.37435-.966-.96583-2.112-1.73197-3.374-2.254675-1.262-.522703-2.615-.791735-3.98-.791735zm-329.599 153.551h78.2777c.5313 0 1.0408.211 1.4165.586.3757.376.5867.885.5867 1.417v28.892c0 .531-.211 1.04-.5867 1.416s-.8852.587-1.4165.587h-78.2777v63.254h340v-63.254h-78.047c-.531 0-1.041-.211-1.416-.587-.376-.376-.587-.885-.587-1.416v-28.892c0-.532.211-1.041.587-1.417.375-.375.885-.586 1.416-.586h78.047v-63.2544h-340zm116.338 2.003c0-.532.211-1.041.587-1.417.375-.375.885-.586 1.416-.586h103.318c.531 0 1.04.211 1.416.586.376.376.587.885.587 1.417v28.892c0 .531-.211 1.04-.587 1.416s-.885.587-1.416.587h-103.318c-.531 0-1.041-.211-1.416-.587-.376-.376-.587-.885-.587-1.416zm-115.546265 178.025c-.522703-1.262-.791735-2.615-.791735-3.981v-38.522h340v38.522c.01 1.369-.252 2.726-.771 3.993-.519 1.266-1.285 2.417-2.253 3.385s-2.118 1.734-3.385 2.253-2.624.781-3.992.77h-319.1979c-1.36591 0-2.71843-.269-3.98034-.791-1.26192-.523-2.40853-1.289-3.37435-2.255-.96583-.966-1.73197-2.112-2.254675-3.374z" fill="#000" fill-rule="evenodd"/></svg>